<?xml version="1.0" standalone="no"?>
<!DOCTYPE svg PUBLIC "-//W3C//DTD SVG 20010904//EN"
 "http://www.w3.org/TR/2001/REC-SVG-20010904/DTD/svg10.dtd">
<svg version="1.0" xmlns="http://www.w3.org/2000/svg"
 width="500.000000pt" height="500.000000pt" viewBox="0 0 500.000000 500.000000"
 preserveAspectRatio="xMidYMid meet">

<g transform="translate(0.000000,500.000000) scale(0.100000,-0.100000)"
fill="#000000" stroke="none">
<path d="M0 2500 l0 -2500 2500 0 2500 0 0 2500 0 2500 -2500 0 -2500 0 0
-2500z m2132 1738 c3 -7 87 -455 189 -996 110 -589 186 -976 191 -965 4 10 84
446 178 968 93 523 173 962 176 978 l6 27 114 0 114 0 0 -1200 0 -1200 -95 0
-94 0 -1 448 c0 246 7 656 15 912 9 256 15 487 13 515 -2 35 -51 -225 -168
-888 l-164 -937 -97 0 -97 0 -10 48 c-6 26 -83 451 -173 944 -90 493 -165 895
-167 893 -2 -1 4 -212 12 -466 18 -513 22 -2065 7 -2274 -21 -284 -96 -404
-269 -435 -80 -15 -179 -2 -242 30 -120 61 -170 211 -170 508 l0 152 94 0 94
0 4 -213 c3 -229 7 -245 63 -297 23 -21 36 -25 90 -25 56 0 67 3 93 28 60 57
56 -47 60 1780 l3 1677 113 0 c82 0 115 -3 118 -12z m1357 -25 c0 -68 -45
-462 -52 -469 -4 -4 -11 -3 -16 2 -7 7 -52 439 -51 492 0 8 19 12 60 12 l60 0
-1 -37z m-917 -2843 c15 -19 18 -43 18 -156 0 -121 -2 -136 -20 -154 -13 -13
-33 -20 -60 -20 l-40 0 0 181 0 182 42 -6 c27 -4 49 -14 60 -27z m878 4 c0
-17 6 -28 20 -31 11 -3 20 -9 20 -14 0 -5 -9 -9 -20 -9 -19 0 -20 -7 -20 -124
0 -115 1 -124 20 -129 33 -9 23 -29 -12 -25 l-33 3 -3 138 c-2 113 -5 137 -17
137 -19 0 -19 16 0 24 8 3 15 17 15 31 0 16 6 25 15 25 9 0 15 -10 15 -26z
m110 11 c0 -8 -9 -15 -20 -15 -11 0 -20 7 -20 15 0 8 9 15 20 15 11 0 20 -7
20 -15z m-828 -52 c14 -12 18 -31 18 -80 l0 -63 -40 0 -40 0 0 -53 c0 -55 13
-79 36 -70 9 3 14 20 14 44 0 28 4 39 15 39 19 0 21 -80 3 -98 -20 -20 -76
-15 -88 7 -5 11 -10 72 -10 135 0 103 2 118 20 136 24 24 47 25 72 3z m162 1
c21 -21 22 -94 1 -94 -10 0 -15 10 -15 34 0 40 -14 53 -36 35 -12 -9 -14 -34
-12 -123 3 -107 4 -111 26 -114 20 -3 22 1 22 37 0 33 4 41 18 41 15 0 17 -7
14 -42 -5 -55 -17 -68 -58 -68 -47 0 -54 20 -54 154 0 103 2 118 20 136 24 24
53 26 74 4z m156 -4 c18 -18 20 -33 20 -136 0 -135 -7 -154 -55 -154 -57 0
-67 27 -63 165 3 102 6 118 22 131 27 19 52 18 76 -6z m160 -1 c0 -5 -5 -9
-12 -9 -6 0 -20 -7 -30 -17 -16 -14 -18 -33 -18 -140 0 -103 -2 -123 -15 -123
-13 0 -15 23 -15 150 0 127 2 150 15 150 8 0 15 -5 15 -11 0 -6 9 -4 22 5 21
15 38 13 38 -5z m126 7 c17 -13 19 -29 22 -153 l3 -140 -50 -1 c-61 -1 -71 12
-71 86 0 51 14 72 63 96 26 14 33 53 14 80 -18 25 -35 14 -43 -29 -4 -22 -12
-35 -21 -35 -13 0 -14 9 -10 42 8 61 49 85 93 54z m360 6 c25 -16 34 -56 34
-149 0 -119 -11 -147 -60 -151 -53 -5 -60 13 -60 150 0 105 2 120 20 138 21
21 47 25 66 12z m185 -2 c17 -10 19 -23 19 -155 0 -122 -2 -145 -15 -145 -13
0 -15 22 -15 135 0 112 -3 137 -15 141 -8 4 -22 1 -30 -6 -12 -10 -15 -39 -15
-141 0 -108 -2 -129 -15 -129 -13 0 -15 23 -15 150 0 127 2 150 15 150 8 0 15
-5 15 -11 0 -6 7 -3 16 5 18 19 28 20 55 6z m-321 -150 c0 -143 -1 -150 -20
-150 -19 0 -20 7 -20 150 0 143 1 150 20 150 19 0 20 -7 20 -150z"/>
<path d="M2500 1220 c0 -142 1 -150 20 -150 31 0 40 32 40 150 0 118 -9 150
-40 150 -19 0 -20 -8 -20 -150z"/>
<path d="M2682 1308 c-7 -7 -12 -29 -12 -50 0 -34 3 -38 26 -38 24 0 25 2 22
47 -3 48 -15 62 -36 41z"/>
<path d="M2990 1301 c-5 -11 -10 -62 -10 -115 0 -75 3 -98 17 -111 30 -30 43
5 43 113 0 89 -10 132 -30 132 -5 0 -14 -9 -20 -19z"/>
<path d="M3286 1184 c-19 -18 -22 -94 -4 -112 7 -7 17 -8 30 -1 14 8 18 22 18
69 0 64 -12 76 -44 44z"/>
<path d="M3652 1308 c-19 -19 -16 -222 3 -238 27 -22 38 4 43 92 6 118 -13
179 -46 146z"/>
</g>
</svg>
