<?xml version="1.0" standalone="no"?>
<!DOCTYPE svg PUBLIC "-//W3C//DTD SVG 20010904//EN"
 "http://www.w3.org/TR/2001/REC-SVG-20010904/DTD/svg10.dtd">
<svg version="1.0" xmlns="http://www.w3.org/2000/svg"
 width="500.000000pt" height="500.000000pt" viewBox="0 0 500.000000 500.000000"
 preserveAspectRatio="xMidYMid meet">

<g transform="translate(0.000000,500.000000) scale(0.100000,-0.100000)"
fill="#000000" stroke="none">
<path d="M1898 2568 l-3 -1693 -22 -45 c-29 -59 -66 -80 -137 -80 -50 0 -59 3
-89 34 -48 48 -57 95 -57 315 l0 191 -96 0 -96 0 4 -183 c6 -206 22 -292 69
-375 57 -100 144 -138 299 -130 176 8 258 93 295 308 23 130 30 1769 11 2320
-9 245 -16 479 -15 520 1 69 99 -444 335 -1748 l16 -93 96 3 96 3 153 865
c189 1076 184 1052 188 1048 2 -2 -3 -181 -11 -398 -7 -217 -13 -659 -14 -982
l0 -588 90 0 90 0 0 1200 0 1200 -115 0 c-63 0 -115 -4 -115 -9 0 -10 -336
-1876 -352 -1951 -11 -54 -14 -37 -193 915 -100 534 -185 987 -189 1008 l-7
37 -114 0 -115 0 -2 -1692z"/>
<path d="M3370 4238 c2 -63 48 -489 53 -494 4 -4 9 -5 13 -2 5 5 53 439 54
486 0 20 -4 22 -60 22 -42 0 -60 -4 -60 -12z"/>
<path d="M3530 1385 c0 -8 5 -15 10 -15 6 0 10 7 10 15 0 8 -4 15 -10 15 -5 0
-10 -7 -10 -15z"/>
<path d="M2470 1216 l0 -176 38 0 c71 0 82 24 82 177 0 149 -8 167 -73 171
l-47 3 0 -175z m78 142 c13 -13 17 -255 4 -274 -4 -6 -17 -14 -29 -18 l-23 -7
0 155 c0 144 1 156 18 156 10 0 23 -5 30 -12z"/>
<path d="M3420 1365 c0 -16 -6 -25 -15 -25 -8 0 -15 -4 -15 -10 0 -5 7 -10 15
-10 12 0 15 -24 17 -137 l3 -138 28 -3 c29 -4 37 12 12 22 -12 4 -15 29 -15
131 0 104 2 125 15 125 8 0 15 5 15 10 0 6 -7 10 -15 10 -9 0 -15 9 -15 25 0
16 -6 25 -15 25 -9 0 -15 -9 -15 -25z"/>
<path d="M2650 1319 c-7 -13 -10 -65 -8 -140 3 -129 7 -139 60 -139 33 0 48
24 48 74 0 54 -28 48 -32 -6 -2 -35 -7 -43 -23 -43 -18 0 -20 8 -23 63 l-3 62
41 0 40 0 0 63 c0 36 -5 68 -12 75 -20 20 -76 15 -88 -9z m68 -52 c3 -45 2
-47 -22 -47 -24 0 -26 4 -26 43 0 48 6 59 30 55 10 -2 16 -17 18 -51z"/>
<path d="M2809 1313 c-16 -43 -8 -251 11 -263 26 -17 69 -11 80 9 16 31 13 91
-5 91 -11 0 -15 -11 -15 -39 0 -43 -9 -55 -34 -45 -14 5 -16 23 -14 128 3 113
4 121 23 121 16 0 21 -8 23 -37 4 -53 32 -52 32 0 0 47 -14 62 -57 62 -27 0
-35 -5 -44 -27z"/>
<path d="M2969 1323 c-10 -11 -15 -50 -17 -122 -3 -129 7 -156 58 -156 49 0
60 27 60 150 0 75 -4 106 -16 123 -18 26 -65 30 -85 5z m65 -19 c3 -9 6 -62 6
-119 0 -79 -3 -105 -15 -115 -12 -10 -18 -10 -30 0 -12 10 -15 36 -15 115 0
116 4 135 30 135 10 0 21 -7 24 -16z"/>
<path d="M3120 1190 c0 -127 2 -150 15 -150 13 0 15 21 15 130 0 129 0 131 25
142 14 6 25 15 25 20 0 12 -24 10 -38 -4 -9 -9 -12 -9 -12 0 0 7 -7 12 -15 12
-13 0 -15 -23 -15 -150z"/>
<path d="M3262 1327 c-7 -8 -15 -28 -18 -45 -5 -25 -3 -32 10 -32 9 0 16 8 16
19 0 32 11 51 30 51 34 0 44 -84 11 -95 -11 -3 -31 -15 -45 -26 -21 -16 -26
-29 -26 -62 0 -23 3 -52 6 -65 8 -26 48 -39 69 -22 10 9 15 9 15 1 0 -6 7 -11
15 -11 13 0 15 19 14 118 -2 163 -5 176 -50 180 -22 2 -40 -2 -47 -11z m54
-255 c-28 -28 -46 -7 -46 52 0 50 3 57 28 70 l27 14 3 -60 c2 -44 -1 -65 -12
-76z"/>
<path d="M3530 1190 c0 -93 4 -150 10 -150 6 0 10 57 10 150 0 93 -4 150 -10
150 -6 0 -10 -57 -10 -150z"/>
<path d="M3620 1321 c-5 -11 -10 -68 -10 -128 0 -124 11 -153 59 -153 48 0 56
21 56 150 0 132 -7 150 -61 150 -23 0 -37 -6 -44 -19z m70 -20 c16 -30 13
-203 -4 -226 -12 -16 -16 -17 -30 -6 -13 11 -16 35 -16 126 0 61 3 115 7 118
12 13 32 7 43 -12z"/>
<path d="M3780 1190 c0 -125 2 -150 15 -150 12 0 15 24 17 138 l3 137 25 0 25
0 3 -137 c2 -114 5 -138 17 -138 13 0 15 23 15 134 0 74 -3 141 -6 150 -7 19
-55 21 -72 4 -9 -9 -12 -9 -12 0 0 7 -7 12 -15 12 -13 0 -15 -23 -15 -150z"/>
</g>
</svg>
