<?xml version="1.0" standalone="no"?>
<!DOCTYPE svg PUBLIC "-//W3C//DTD SVG 20010904//EN"
 "http://www.w3.org/TR/2001/REC-SVG-20010904/DTD/svg10.dtd">
<svg version="1.0" xmlns="http://www.w3.org/2000/svg"
 width="512.000000pt" height="512.000000pt" viewBox="0 0 512.000000 512.000000"
 preserveAspectRatio="xMidYMid meet">

<g transform="translate(0.000000,512.000000) scale(0.100000,-0.100000)"
fill="#000000" stroke="none">
<path d="M532 4388 c-19 -19 -15 -66 7 -78 27 -14 4015 -14 4042 0 22 12 26
59 7 78 -17 17 -4039 17 -4056 0z"/>
<path d="M532 2598 c-7 -7 -12 -24 -12 -38 0 -14 5 -31 12 -38 17 -17 4039
-17 4056 0 15 15 15 61 0 76 -17 17 -4039 17 -4056 0z"/>
<path d="M538 809 c-21 -12 -24 -59 -6 -77 17 -17 4039 -17 4056 0 19 19 15
66 -7 78 -27 14 -4019 14 -4043 -1z"/>
</g>
</svg>
