<svg width="0" height="0" class="hidden">
  <symbol version="1.0" xmlns="http://www.w3.org/2000/svg" preserveAspectRatio="xMidYMid meet" viewBox="0 0 512.000000 512.000000" id="menu2">
    <g transform="translate(0.000000,512.000000) scale(0.100000,-0.100000)" fill="#000000" stroke="none">
      <path d="M532 4388 c-19 -19 -15 -66 7 -78 27 -14 4015 -14 4042 0 22 12 26
59 7 78 -17 17 -4039 17 -4056 0z"></path>
      <path d="M532 2598 c-7 -7 -12 -24 -12 -38 0 -14 5 -31 12 -38 17 -17 4039
-17 4056 0 15 15 15 61 0 76 -17 17 -4039 17 -4056 0z"></path>
      <path d="M538 809 c-21 -12 -24 -59 -6 -77 17 -17 4039 -17 4056 0 19 19 15
66 -7 78 -27 14 -4019 14 -4043 -1z"></path>
    </g>
  </symbol>
  <symbol xmlns="http://www.w3.org/2000/svg" xmlns:xlink="http://www.w3.org/1999/xlink" version="1.1" xml:space="preserve" viewBox="0 0 256 256" id="email">
    <desc>Created with Fabric.js 1.7.22</desc>
    <defs></defs>
    <g transform="translate(128 128) scale(0.72 0.72)">
      <g transform="translate(-175.05 -175.05000000000004) scale(3.89 3.89)">
        <path d="M 75.546 78.738 H 14.455 C 6.484 78.738 0 72.254 0 64.283 V 25.716 c 0 -7.97 6.485 -14.455 14.455 -14.455 h 61.091 c 7.97 0 14.454 6.485 14.454 14.455 v 38.567 C 90 72.254 83.516 78.738 75.546 78.738 z M 14.455 15.488 c -5.64 0 -10.228 4.588 -10.228 10.228 v 38.567 c 0 5.64 4.588 10.229 10.228 10.229 h 61.091 c 5.64 0 10.228 -4.589 10.228 -10.229 V 25.716 c 0 -5.64 -4.588 -10.228 -10.228 -10.228 H 14.455 z" transform=" matrix(1 0 0 1 0 0) " stroke-linecap="round"></path>
        <path d="M 11.044 25.917 C 21.848 36.445 32.652 46.972 43.456 57.5 c 2.014 1.962 5.105 -1.122 3.088 -3.088 C 35.74 43.885 24.936 33.357 14.132 22.83 C 12.118 20.867 9.027 23.952 11.044 25.917 L 11.044 25.917 z" transform=" matrix(1 0 0 1 0 0) " stroke-linecap="round"></path>
        <path d="M 46.544 57.5 c 10.804 -10.527 21.608 -21.055 32.412 -31.582 c 2.016 -1.965 -1.073 -5.051 -3.088 -3.088 C 65.064 33.357 54.26 43.885 43.456 54.412 C 41.44 56.377 44.529 59.463 46.544 57.5 L 46.544 57.5 z" transform=" matrix(1 0 0 1 0 0) " stroke-linecap="round"></path>
        <path d="M 78.837 64.952 c -7.189 -6.818 -14.379 -13.635 -21.568 -20.453 c -2.039 -1.933 -5.132 1.149 -3.088 3.088 c 7.189 6.818 14.379 13.635 21.568 20.453 C 77.788 69.973 80.881 66.89 78.837 64.952 L 78.837 64.952 z" transform=" matrix(1 0 0 1 0 0) " stroke-linecap="round"></path>
        <path d="M 14.446 68.039 c 7.189 -6.818 14.379 -13.635 21.568 -20.453 c 2.043 -1.938 -1.048 -5.022 -3.088 -3.088 c -7.189 6.818 -14.379 13.635 -21.568 20.453 C 9.315 66.889 12.406 69.974 14.446 68.039 L 14.446 68.039 z" transform=" matrix(1 0 0 1 0 0) " stroke-linecap="round"></path>
      </g>
    </g>
  </symbol>
  <symbol fill="#000000" xmlns="http://www.w3.org/2000/svg" viewBox="0 0 24 24" id="insta">
    <path d="M 8 3 C 5.243 3 3 5.243 3 8 L 3 16 C 3 18.757 5.243 21 8 21 L 16 21 C 18.757 21 21 18.757 21 16 L 21 8 C 21 5.243 18.757 3 16 3 L 8 3 z M 8 5 L 16 5 C 17.654 5 19 6.346 19 8 L 19 16 C 19 17.654 17.654 19 16 19 L 8 19 C 6.346 19 5 17.654 5 16 L 5 8 C 5 6.346 6.346 5 8 5 z M 17 6 A 1 1 0 0 0 16 7 A 1 1 0 0 0 17 8 A 1 1 0 0 0 18 7 A 1 1 0 0 0 17 6 z M 12 7 C 9.243 7 7 9.243 7 12 C 7 14.757 9.243 17 12 17 C 14.757 17 17 14.757 17 12 C 17 9.243 14.757 7 12 7 z M 12 9 C 13.654 9 15 10.346 15 12 C 15 13.654 13.654 15 12 15 C 10.346 15 9 13.654 9 12 C 9 10.346 10.346 9 12 9 z"></path>
  </symbol>
  <symbol version="1.0" xmlns="http://www.w3.org/2000/svg" preserveAspectRatio="xMidYMid meet" viewBox="0 0 512.000000 512.000000" id="menu">
    <g transform="translate(0.000000,512.000000) scale(0.100000,-0.100000)" fill="#000000" stroke="none">
      <path d="M565 4151 c-90 -22 -173 -90 -215 -176 -33 -69 -34 -199 -2 -265 34
-71 75 -113 144 -151 l63 -34 2005 0 2005 0 50 25 c64 31 124 91 155 155 35
72 35 198 0 270 -31 64 -91 124 -155 155 l-50 25 -1985 2 c-1092 0 -1998 -2
-2015 -6z"></path>
      <path d="M565 2871 c-90 -22 -173 -90 -215 -176 -35 -73 -35 -199 0 -270 31
-64 91 -124 155 -155 l50 -25 2005 0 2005 0 50 25 c64 31 124 91 155 155 35
72 35 198 0 270 -31 64 -91 124 -155 155 l-50 25 -1985 2 c-1092 0 -1998 -2
-2015 -6z"></path>
      <path d="M540 1583 c-141 -49 -229 -182 -218 -326 10 -115 79 -216 183 -267
l50 -25 2005 0 2005 0 50 25 c64 31 124 91 155 155 35 72 35 198 0 270 -31 64
-91 124 -155 155 l-50 25 -1990 2 c-1790 2 -1995 1 -2035 -14z"></path>
    </g>
  </symbol>
</svg>